<?xml version="1.0" encoding="utf-8"?>
<!-- Generator: Adobe Illustrator 27.2.0, SVG Export Plug-In . SVG Version: 6.00 Build 0)  -->
<svg version="1.1" id="Layer_1" xmlns="http://www.w3.org/2000/svg" xmlns:xlink="http://www.w3.org/1999/xlink" x="0px" y="0px"
	 viewBox="0 0 524.409 396.85" enable-background="new 0 0 524.409 396.85" xml:space="preserve">
<g>
	<g>
		<path fill="#FF427B" d="M446.27,203.275c-4.858,11.994-11.82,23.553-22.287,31.164c-12.738,9.249-29.226,11.646-44.97,11.432
			c-14.874-0.214-29.851-2.548-43.593-8.252c31.805-6.788,61.229-24.305,82.369-49.021s33.886-56.505,35.674-88.983
			c0.657-11.978-0.158-24.131-3.6-35.618c-3.457-11.488-9.66-22.311-18.672-30.215c-9.019-7.912-20.958-12.73-32.944-12.121
			c-11.978,0.609-23.775,6.986-29.906,17.295c-2.975,4.992-4.597,10.776-4.644,16.583c-0.063,9.367,4.241,18.814,11.773,24.384
			c7.532,5.57,18.205,6.836,26.56,2.603c8.355-4.233,13.703-14.035,12.136-23.268c0.008,6.741-2.832,13.545-8.038,17.825
			c-8.189,6.749-21.433,5.752-29.004-1.677c-7.579-7.421-9.035-20.064-3.948-29.376c5.079-9.312,15.958-14.882,26.552-14.304
			c13.537,0.736,25.365,10.712,31.243,22.928c5.871,12.216,6.591,26.306,5.317,39.804c-1.954,20.729-8.505,41.165-20.104,58.444
			c-7.097,10.578-15.997,19.882-25.935,27.833c-20.317,16.266-45.516,26.987-71.53,27.707c-0.498,0.016-1.266,4.003-1.385,4.462
			c-0.918,3.473-0.839,4.074-1.978,7.477c-1.013,3.03-1.875,6.1-3.165,9.027c-0.467,1.06-0.894,2.136-1.313,3.212
			c0-1.131,0.04-2.271,0.111-3.41c0.063-0.997,0.277-2.041,0.277-3.046c0.127-1.084,0.293-2.176,0.475-3.26
			c0.19-1.084,0.403-2.168,0.641-3.244c0.245-1.076,0.506-2.144,0.783-3.22c0.285-1.06,0.585-2.12,0.902-3.173
			s0.649-2.089,0.989-3.133c0.301-0.886,0.601-1.764,0.918-2.65c0.657-1.851,1.361-3.687,2.104-5.507
			c6.448-15.926,14.842-30.958,20.974-47.035c11.543-30.239,17.809-63.713,4.011-94.307c-7.144-15.831-18.766-29.534-33.292-39.076
			c-11.749-7.706-25.262-12.769-39.258-14.17c-2.761-0.285-5.53-0.419-8.307-0.427c-2.769,0.008-5.538,0.142-8.299,0.427
			c-13.996,1.4-27.517,6.464-39.258,14.17c-14.526,9.542-26.148,23.245-33.292,39.076c-13.806,30.594-7.532,64.069,4.011,94.307
			c6.132,16.076,14.526,31.109,20.974,47.035c0.744,1.82,1.448,3.655,2.104,5.507c0.309,0.886,0.617,1.764,0.918,2.65
			c0.34,1.044,0.672,2.081,0.989,3.133c0.316,1.052,0.609,2.112,0.902,3.173c0.277,1.076,0.538,2.144,0.783,3.22
			c0.237,1.076,0.451,2.16,0.633,3.244c0.19,1.084,0.356,2.176,0.483,3.26c0,1.005,0.214,2.049,0.277,3.046
			c0.071,1.139,0.111,2.279,0.111,3.41c-0.419-1.076-0.847-2.152-1.313-3.212c-1.29-2.927-2.152-5.997-3.165-9.027
			c-1.139-3.402-1.06-4.003-1.978-7.477c-0.119-0.459-0.886-4.446-1.385-4.462c-26.014-0.72-51.212-11.44-71.529-27.707
			c-9.937-7.951-18.838-17.255-25.935-27.833c-11.598-17.279-18.149-37.715-20.104-58.444C86.85,80.96,87.578,66.87,93.449,54.654
			c5.878-12.216,17.706-22.192,31.243-22.928c10.594-0.578,21.472,4.992,26.552,14.304c5.087,9.312,3.632,21.955-3.948,29.376
			c-7.572,7.429-20.816,8.426-29.004,1.677c-5.206-4.28-8.054-11.084-8.038-17.825c-1.567,9.233,3.782,19.036,12.136,23.268
			c8.355,4.233,19.028,2.967,26.559-2.603c7.532-5.57,11.836-15.016,11.773-24.384c-0.047-5.807-1.67-11.591-4.644-16.583
			c-6.131-10.309-17.928-16.686-29.914-17.295c-11.978-0.609-23.917,4.209-32.936,12.121c-9.011,7.904-15.214,18.727-18.672,30.215
			c-3.441,11.488-4.256,23.64-3.6,35.618c1.788,32.477,14.534,64.267,35.674,88.983s50.564,42.233,82.369,49.021
			c-13.743,5.704-28.719,8.038-43.601,8.252c-15.736,0.214-32.224-2.184-44.962-11.432c-10.467-7.611-17.43-19.17-22.287-31.164
			c-4.858-11.986-7.88-24.629-12.184-36.837c-3.774-10.704-8.758-21.377-17.232-28.925c-10.752-9.565-26.71-12.865-40.373-8.339
			c6.844-0.767,13.901-0.854,20.452,1.258c7.54,2.445,13.956,7.722,18.648,14.107c9.233,12.556,11.852,28.609,14.668,43.934
			c3.252,17.611,7.382,35.745,18.213,50.018c7.888,10.404,18.98,18.141,31.061,23.118c12.065,4.969,25.12,7.279,38.15,8.03
			c21.749,1.242,43.728-1.828,64.306-8.988c-4.921,10.119-12.872,18.751-22.556,24.479c-9.684,5.744-21.069,8.568-32.311,8.022
			c-11.86-0.57-23.205-4.755-34.566-8.22c-8.758-2.666-17.706-4.953-26.844-5.507c-9.138-0.546-18.529,0.704-26.726,4.787
			c-8.196,4.09-15.08,11.211-17.77,19.961c-0.024,0.071-0.047,0.142-0.071,0.221c-0.087,0.317-0.182,0.649-0.269,0.973
			c-0.079,0.332-0.158,0.665-0.229,0.997c-0.071,0.332-0.135,0.665-0.19,0.997c-0.063,0.34-0.119,0.672-0.158,1.012
			c-0.055,0.332-0.087,0.673-0.127,1.013c-0.032,0.34-0.055,0.68-0.079,1.021c-0.016,0.34-0.031,0.68-0.039,1.021
			c-0.008,0.34-0.008,0.68,0,1.021c0.008,0.34,0.016,0.68,0.032,1.021c0.024,0.34,0.047,0.68,0.079,1.013
			c0.032,0.34,0.063,0.688,0.111,1.021c0.04,0.332,0.087,0.672,0.15,1.005c0.055,0.34,0.111,0.673,0.182,0.997
			c0.071,0.34,0.142,0.665,0.229,0.997c0.079,0.324,0.166,0.656,0.261,0.981c0.095,0.324,0.198,0.649,0.309,0.965
			c0.103,0.317,0.214,0.641,0.34,0.949c0.111,0.316,0.237,0.633,0.372,0.941c0.127,0.309,0.269,0.617,0.411,0.918
			c0.15,0.309,0.301,0.609,0.459,0.902c0.158,0.301,0.324,0.593,0.49,0.886c0.166,0.285,0.348,0.57,0.53,0.854
			c0.182,0.277,0.372,0.562,0.57,0.831c0.19,0.269,0.396,0.546,0.601,0.807c0.214,0.269,0.427,0.522,0.641,0.775
			c0.229,0.253,0.443,0.522,0.617,0.807c0.127,0.206,0.237,0.419,0.34,0.633c0.095,0.198,0.198,0.396,0.316,0.578
			c0.166,0.245,0.356,0.475,0.57,0.68c0.253,0.245,0.522,0.475,0.791,0.712c0.261,0.229,0.53,0.443,0.799,0.665
			c0.269,0.214,0.538,0.427,0.823,0.633c0.269,0.206,0.546,0.411,0.839,0.601c0.285,0.206,0.57,0.388,0.862,0.578
			c0.293,0.19,0.585,0.372,0.878,0.546c0.301,0.174,0.601,0.348,0.91,0.514c0.301,0.166,0.609,0.324,0.918,0.483
			c0.308,0.15,0.617,0.301,0.926,0.443c0.316,0.142,0.633,0.285,0.957,0.411c0.317,0.135,0.641,0.261,0.957,0.38
			c0.324,0.127,0.649,0.237,0.973,0.34c0.332,0.111,0.657,0.213,0.989,0.316c0.324,0.095,0.665,0.182,0.989,0.269
			c0.332,0.079,0.672,0.158,1.005,0.229c0.332,0.071,0.673,0.134,1.013,0.19c0.332,0.063,0.673,0.111,1.005,0.158
			c0.34,0.048,0.681,0.079,1.021,0.111c0.34,0.031,0.681,0.055,1.021,0.071c0.34,0.024,0.68,0.032,1.021,0.032
			c0.34,0.008,0.68,0,1.021-0.008c0.34-0.008,0.68-0.024,1.013-0.048c0.34-0.031,0.68-0.063,1.021-0.111
			c0.34-0.032,0.673-0.079,1.005-0.135c0.34-0.055,0.681-0.127,1.013-0.19c0.332-0.071,0.665-0.15,0.997-0.237
			c0.324-0.087,0.665-0.182,0.989-0.285c9.32-2.904,16.314-12.896,14.558-22.501c-0.071,7.563-4.929,14.874-11.883,17.872
			c-6.947,2.999-15.594,1.511-21.156-3.624c-5.546-5.143-7.698-13.656-5.253-20.808c2.468-7.192,9.075-12.477,16.361-14.605
			c7.287-2.136,15.167-1.448,22.493,0.562s14.225,5.277,21.179,8.347c12.263,5.419,24.954,10.301,38.269,11.891
			c13.07,1.551,26.52-0.174,38.775-4.977c11.163-4.367,21.243-11.227,30.12-19.296c-4.154,8.568-11.607,15.214-19.961,19.771
			c-8.031,4.383-16.9,6.986-25.341,10.507c-8.45,3.521-16.773,8.212-22.145,15.626c-5.364,7.413-7.081,18.062-2.097,25.737
			c3.513,5.42,9.684,8.545,15.863,10.428c6.179,1.891,12.651,2.785,18.703,5.056c6.052,2.271,11.883,6.242,14.328,12.223
			c-0.427-5.847-5.317-10.341-10.301-13.45c-7.223-4.502-15.309-7.429-22.857-11.369c-2.5-1.298-5.024-2.785-6.63-5.095
			c-2.935-4.225-1.915-10.301,1.242-14.352c3.165-4.051,8.022-6.424,12.904-8.038c10.151-3.378,21.021-4.106,31.228-7.334
			c20.768-6.567,37.122-23.055,48.522-41.639c11.409,18.585,27.762,35.073,48.53,41.639c10.206,3.228,21.077,3.956,31.227,7.334
			c4.882,1.614,9.739,3.987,12.904,8.038c3.157,4.051,4.177,10.127,1.242,14.352c-1.606,2.31-4.13,3.798-6.63,5.095
			c-7.548,3.94-15.633,6.867-22.865,11.369c-4.977,3.109-9.866,7.603-10.293,13.45c2.445-5.981,8.276-9.953,14.328-12.223
			c6.052-2.271,12.524-3.165,18.703-5.056c6.179-1.883,12.342-5.008,15.863-10.428c4.984-7.674,3.267-18.323-2.097-25.737
			c-5.372-7.413-13.695-12.105-22.145-15.626c-8.45-3.521-17.311-6.124-25.341-10.507c-8.355-4.557-15.808-11.203-19.961-19.771
			c8.869,8.07,18.956,14.929,30.12,19.296c12.255,4.802,25.705,6.527,38.767,4.977c13.323-1.59,26.014-6.472,38.277-11.891
			c6.946-3.07,13.853-6.337,21.18-8.347c7.326-2.01,15.198-2.698,22.493-0.562c7.287,2.128,13.893,7.413,16.361,14.605
			c2.445,7.152,0.293,15.665-5.261,20.808c-5.554,5.135-14.202,6.622-21.148,3.624c-6.954-2.999-11.812-10.309-11.883-17.872
			c-1.756,9.605,5.23,19.597,14.557,22.501c0.324,0.103,0.665,0.198,0.989,0.285c0.332,0.087,0.665,0.166,0.997,0.237
			c0.332,0.063,0.672,0.135,1.013,0.19c0.332,0.055,0.665,0.103,1.005,0.135c0.34,0.047,0.68,0.079,1.021,0.111
			c0.332,0.024,0.672,0.04,1.013,0.048s0.68,0.016,1.021,0.008c0.34,0,0.68-0.008,1.021-0.032c0.34-0.016,0.681-0.04,1.021-0.071
			c0.34-0.032,0.68-0.063,1.021-0.111c0.332-0.047,0.673-0.095,1.005-0.158c0.34-0.055,0.68-0.119,1.013-0.19
			c0.332-0.071,0.664-0.15,1.005-0.229c0.324-0.087,0.656-0.174,0.989-0.269c0.324-0.103,0.656-0.206,0.981-0.316
			c0.332-0.103,0.656-0.214,0.973-0.34c0.324-0.119,0.649-0.245,0.965-0.38c0.324-0.126,0.641-0.269,0.957-0.411
			c0.309-0.143,0.617-0.293,0.926-0.443c0.309-0.158,0.617-0.317,0.918-0.483c0.308-0.166,0.609-0.34,0.91-0.514
			c0.293-0.174,0.585-0.356,0.878-0.546c0.293-0.19,0.578-0.372,0.862-0.578c0.285-0.19,0.57-0.396,0.839-0.601
			c0.285-0.206,0.554-0.419,0.823-0.633c0.269-0.221,0.538-0.435,0.799-0.665c0.269-0.237,0.538-0.467,0.791-0.712
			c0.214-0.206,0.404-0.435,0.57-0.68c0.119-0.182,0.222-0.38,0.317-0.578c0.103-0.214,0.214-0.427,0.34-0.633
			c0.174-0.285,0.388-0.554,0.617-0.807c0.214-0.253,0.427-0.506,0.641-0.775c0.206-0.261,0.411-0.538,0.601-0.807
			c0.198-0.269,0.388-0.554,0.57-0.831c0.182-0.285,0.364-0.57,0.53-0.854c0.166-0.293,0.332-0.585,0.49-0.886
			c0.158-0.293,0.309-0.593,0.451-0.902c0.15-0.301,0.293-0.609,0.419-0.918c0.134-0.309,0.261-0.625,0.372-0.941
			c0.126-0.309,0.237-0.633,0.34-0.949c0.111-0.316,0.214-0.641,0.309-0.965c0.095-0.324,0.182-0.657,0.261-0.981
			c0.087-0.333,0.158-0.657,0.229-0.997c0.071-0.324,0.127-0.657,0.182-0.997c0.063-0.332,0.111-0.673,0.15-1.005
			c0.047-0.333,0.079-0.681,0.111-1.021c0.032-0.332,0.055-0.673,0.071-1.013c0.024-0.34,0.032-0.68,0.04-1.021
			c0.008-0.34,0.008-0.68,0-1.021c-0.016-0.34-0.024-0.68-0.04-1.021c-0.024-0.34-0.055-0.68-0.079-1.021
			c-0.04-0.34-0.079-0.681-0.127-1.013c-0.04-0.34-0.095-0.672-0.158-1.012c-0.055-0.333-0.119-0.665-0.19-0.997
			s-0.15-0.665-0.237-0.997c-0.079-0.324-0.174-0.656-0.261-0.973c-0.024-0.079-0.048-0.15-0.071-0.221
			c-2.69-8.75-9.573-15.871-17.77-19.961c-8.196-4.083-17.588-5.333-26.726-4.787c-9.146,0.554-18.086,2.84-26.844,5.507
			c-11.361,3.465-22.707,7.651-34.566,8.22c-11.25,0.546-22.627-2.279-32.311-8.022c-9.684-5.728-17.635-14.36-22.556-24.479
			c20.57,7.16,42.557,10.23,64.306,8.988c13.031-0.752,26.085-3.062,38.15-8.03c12.081-4.976,23.173-12.714,31.061-23.118
			c10.823-14.273,14.961-32.406,18.213-50.018c2.817-15.325,5.435-31.378,14.66-43.934c4.7-6.385,11.116-11.662,18.656-14.107
			c6.543-2.112,13.608-2.025,20.444-1.258c-13.656-4.526-29.613-1.226-40.365,8.339c-8.473,7.548-13.458,18.221-17.231,28.925
			C454.15,178.646,451.128,191.289,446.27,203.275z M278.819,98.738c4.154,0,7.516,3.362,7.516,7.516s-3.362,7.516-7.516,7.516
			c-4.146,0-7.516-3.362-7.516-7.516S274.674,98.738,278.819,98.738z M245.59,98.738c4.154,0,7.516,3.362,7.516,7.516
			s-3.363,7.516-7.516,7.516c-4.146,0-7.516-3.362-7.516-7.516S241.444,98.738,245.59,98.738z M295.916,136.738
			c-17.785,9.209-38.641,10.728-57.55,4.146c-15.942-5.546-30.8-16.662-38-32.248c-1.567-3.41-2.745-7.002-3.465-10.689h17.683
			c-2.84,2.603-5.815,5.823-6.709,9.7c-0.633,2.737,0.143,5.396,1.931,7.532c2.128,2.54,5.174,4.241,8.165,5.57
			c3.829,1.709,7.888,2.88,11.962,3.829c4.399,1.021,8.861,1.757,13.347,2.302c4.075,0.498,8.173,0.839,12.279,0.989
			c8.877,0.34,17.714,0.126,26.528-1.005c0.127-0.016,0.261-0.04,0.396-0.055c4.47-0.585,8.917-1.361,13.292-2.445
			c3.988-0.981,7.967-2.199,11.678-3.987c2.848-1.369,5.768-3.133,7.643-5.744c1.646-2.287,2.057-5.04,1.195-7.722
			c-0.49-1.527-1.305-2.935-2.247-4.233c-0.57-0.791-1.203-1.543-1.859-2.263c-0.372-0.411-0.76-0.807-1.155-1.203
			c-0.198-0.198-1.226-0.934-1.234-1.179c0-0.032,0-0.063,0.016-0.087h17.706C324.161,115.194,311.154,128.834,295.916,136.738z"/>
		<path fill="#FF427B" d="M202.271,343.962c0-3.528-2.86-6.387-6.387-6.387c-3.527,0-6.387,2.859-6.387,6.387
			c0,3.527,2.86,6.387,6.387,6.387C199.411,350.349,202.271,347.49,202.271,343.962z"/>
		<path fill="#FF427B" d="M212.552,333.722c-3.428,0-6.208,2.779-6.208,6.208c0,3.428,2.779,6.208,6.208,6.208
			s6.208-2.779,6.208-6.208C218.76,336.502,215.981,333.722,212.552,333.722z"/>
		<path fill="#FF427B" d="M185.325,349.072c0-3.367-2.73-6.097-6.097-6.097s-6.097,2.73-6.097,6.097s2.729,6.097,6.097,6.097
			S185.325,352.439,185.325,349.072z"/>
		<path fill="#FF427B" d="M111.855,301.781c-3.206,0-5.804,2.599-5.804,5.804s2.599,5.804,5.804,5.804s5.804-2.598,5.804-5.804
			S115.06,301.781,111.855,301.781z"/>
		<path fill="#FF427B" d="M68.986,61.355c3.213,0,5.817-2.604,5.817-5.817s-2.604-5.817-5.817-5.817s-5.817,2.604-5.817,5.817
			S65.773,61.355,68.986,61.355z"/>
		<path fill="#FF427B" d="M70.642,238.525c-3.169,0-5.738,2.569-5.738,5.737S67.473,250,70.642,250c3.169,0,5.738-2.569,5.738-5.737
			S73.811,238.525,70.642,238.525z"/>
		<path fill="#FF427B" d="M62.784,90.748c3.122,0,5.653-2.531,5.653-5.653c0-3.122-2.531-5.653-5.653-5.653
			c-3.122,0-5.653,2.531-5.653,5.653C57.131,88.217,59.662,90.748,62.784,90.748z"/>
		<path fill="#FF427B" d="M75.473,47.577c3.146,0,5.696-2.55,5.696-5.696c0-3.146-2.55-5.696-5.696-5.696
			c-3.146,0-5.696,2.55-5.696,5.696C69.777,45.027,72.327,47.577,75.473,47.577z"/>
		<path fill="#FF427B" d="M81.071,260.869c3.101,0,5.615-2.514,5.615-5.615c0-3.101-2.514-5.615-5.615-5.615
			c-3.101,0-5.615,2.514-5.615,5.615C75.457,258.355,77.97,260.869,81.071,260.869z"/>
		<path fill="#FF427B" d="M64.815,75.743c3.121,0,5.65-2.53,5.65-5.65s-2.53-5.65-5.65-5.65c-3.12,0-5.65,2.53-5.65,5.65
			S61.694,75.743,64.815,75.743z"/>
		<path fill="#FF427B" d="M62.587,105.945c3.133,0,5.673-2.54,5.673-5.673c0-3.133-2.54-5.673-5.673-5.673
			c-3.133,0-5.673,2.54-5.673,5.673C56.914,103.406,59.454,105.945,62.587,105.945z"/>
		<path fill="#FF427B" d="M97.974,297.106c-3.138,0-5.682,2.544-5.682,5.682s2.544,5.682,5.682,5.682
			c3.138,0,5.682-2.544,5.682-5.682S101.112,297.106,97.974,297.106z"/>
		<path fill="#FF427B" d="M62.858,225.724c-3.072,0-5.563,2.491-5.563,5.563c0,3.073,2.49,5.563,5.563,5.563
			c3.072,0,5.563-2.491,5.563-5.563C68.421,228.215,65.931,225.724,62.858,225.724z"/>
		<circle fill="#FF427B" cx="64.1" cy="115.362" r="5.495"/>
		<circle fill="#FF427B" cx="84.805" cy="29.946" r="5.482"/>
		<circle fill="#FF427B" cx="96.845" cy="20.808" r="5.376"/>
		<path fill="#FF427B" d="M98.806,264.077c0-3.034-2.459-5.493-5.493-5.493s-5.494,2.459-5.494,5.493s2.46,5.494,5.494,5.494
			S98.806,267.111,98.806,264.077z"/>
		<circle fill="#FF427B" cx="228.319" cy="333.241" r="5.418"/>
		<path fill="#FF427B" d="M67.146,124.706c-3,0-5.432,2.432-5.432,5.432c0,3,2.432,5.432,5.432,5.432s5.432-2.432,5.432-5.432
			C72.578,127.138,70.146,124.706,67.146,124.706z"/>
		<path fill="#FF427B" d="M57.722,211.684c-2.967,0-5.372,2.405-5.372,5.372s2.405,5.372,5.372,5.372s5.372-2.405,5.372-5.372
			S60.688,211.684,57.722,211.684z"/>
		<path fill="#FF427B" d="M88.693,300.769c0-2.933-2.377-5.31-5.31-5.31c-2.932,0-5.31,2.377-5.31,5.31s2.377,5.31,5.31,5.31
			C86.316,306.079,88.693,303.702,88.693,300.769z"/>
		<path fill="#FF427B" d="M186.036,366.389c2.979,0,5.393-2.415,5.393-5.394s-2.415-5.394-5.393-5.394s-5.394,2.415-5.394,5.394
			S183.057,366.389,186.036,366.389z"/>
		<path fill="#FF427B" d="M125.44,308.187c-2.941,0-5.324,2.324-5.324,5.192c0,2.867,2.384,5.192,5.324,5.192
			s5.324-2.324,5.324-5.192C130.765,310.512,128.381,308.187,125.44,308.187z"/>
		<path fill="#FF427B" d="M110.813,20.357c2.873,0,5.202-2.329,5.202-5.202s-2.329-5.202-5.202-5.202
			c-2.873,0-5.202,2.329-5.202,5.202S107.94,20.357,110.813,20.357z"/>
		<path fill="#FF427B" d="M112.098,270.738c0-2.849-2.31-5.159-5.159-5.159s-5.159,2.31-5.159,5.159s2.31,5.159,5.159,5.159
			S112.098,273.587,112.098,270.738z"/>
		<path fill="#FF427B" d="M71.655,139.526c-2.84,0-5.143,2.302-5.143,5.142c0,2.84,2.302,5.142,5.143,5.142
			c2.84,0,5.143-2.302,5.143-5.142C76.798,141.829,74.495,139.526,71.655,139.526z"/>
		<path fill="#FF427B" d="M59.699,202.181c0-2.769-2.245-5.013-5.013-5.013c-2.769,0-5.013,2.244-5.013,5.013
			c0,2.769,2.245,5.013,5.013,5.013C57.454,207.194,59.699,204.95,59.699,202.181z"/>
		<path fill="#FF427B" d="M125.85,18.645c2.74,0,4.961-2.221,4.961-4.961c0-2.74-2.221-4.961-4.961-4.961s-4.961,2.221-4.961,4.961
			C120.889,16.424,123.11,18.645,125.85,18.645z"/>
		<path fill="#FF427B" d="M77.443,153.88c-2.625,0-4.753,2.128-4.753,4.753c0,2.625,2.128,4.753,4.753,4.753
			c2.625,0,4.753-2.128,4.753-4.753C82.196,156.008,80.068,153.88,77.443,153.88z"/>
		<path fill="#FF427B" d="M140.701,21.573c2.583,0,4.677-2.094,4.677-4.677s-2.094-4.677-4.677-4.677s-4.678,2.094-4.678,4.677
			S138.118,21.573,140.701,21.573z"/>
		<path fill="#FF427B" d="M126.065,275.263c0-2.604-2.111-4.715-4.715-4.715s-4.715,2.111-4.715,4.715
			c0,2.604,2.111,4.715,4.715,4.715S126.065,277.867,126.065,275.263z"/>
		<circle fill="#FF427B" cx="84.667" cy="171.975" r="4.57"/>
		<path fill="#FF427B" d="M74.776,306.585c0-2.503-2.029-4.533-4.533-4.533s-4.533,2.029-4.533,4.533
			c0,2.503,2.029,4.532,4.533,4.532S74.776,309.088,74.776,306.585z"/>
		<circle fill="#FF427B" cx="139.157" cy="318.658" r="4.467"/>
		<path fill="#FF427B" d="M56.8,187.268c0-2.46-1.994-4.454-4.454-4.454c-2.46,0-4.454,1.994-4.454,4.454
			c0,2.46,1.994,4.454,4.454,4.454C54.806,191.721,56.8,189.727,56.8,187.268z"/>
		<path fill="#FF427B" d="M153.799,28.73c2.454,0,4.443-1.989,4.443-4.443c0-2.454-1.989-4.443-4.443-4.443
			c-2.454,0-4.443,1.989-4.443,4.443C149.356,26.741,151.345,28.73,153.799,28.73z"/>
		<path fill="#FF427B" d="M92.977,188.715c2.307,0,4.177-1.871,4.177-4.178s-1.87-4.178-4.177-4.178s-4.177,1.87-4.177,4.178
			S90.67,188.715,92.977,188.715z"/>
		<path fill="#FF427B" d="M140.402,277.852c0-2.255-1.828-4.083-4.082-4.083c-2.255,0-4.082,1.828-4.082,4.083
			c0,2.255,1.828,4.083,4.082,4.083C138.574,281.934,140.402,280.106,140.402,277.852z"/>
		<path fill="#FF427B" d="M242.713,319.906c-2.216,0-4.012,1.797-4.012,4.013c0,2.216,1.797,4.013,4.012,4.013
			c2.216,0,4.012-1.797,4.012-4.013C246.726,321.703,244.929,319.906,242.713,319.906z"/>
		<path fill="#FF427B" d="M163.705,39.603c2.212,0,4.005-1.793,4.005-4.005s-1.793-4.005-4.005-4.005s-4.005,1.793-4.005,4.005
			S161.494,39.603,163.705,39.603z"/>
		<path fill="#FF427B" d="M200.806,372.549c2.188,0,3.962-1.774,3.962-3.962s-1.774-3.962-3.962-3.962
			c-2.188,0-3.962,1.774-3.962,3.962S198.618,372.549,200.806,372.549z"/>
		<path fill="#FF427B" d="M106.182,196.387c0-2.058-1.669-3.727-3.727-3.727c-2.058,0-3.727,1.668-3.727,3.727
			s1.669,3.727,3.727,3.727C104.513,200.113,106.182,198.445,106.182,196.387z"/>
		<circle fill="#FF427B" cx="168.76" cy="49.506" r="4.018"/>
		<path fill="#FF427B" d="M53.387,172.302c0-2.03-1.645-3.675-3.675-3.675s-3.675,1.645-3.675,3.675s1.645,3.675,3.675,3.675
			S53.387,174.331,53.387,172.302z"/>
		<circle fill="#FF427B" cx="113.1" cy="206.946" r="3.526"/>
		<circle fill="#FF427B" cx="151.641" cy="278.75" r="3.631"/>
		<circle fill="#FF427B" cx="153.847" cy="321.904" r="3.432"/>
		<path fill="#FF427B" d="M65.623,320.5c0,1.886,1.529,3.415,3.415,3.415c1.886,0,3.415-1.529,3.415-3.415s-1.529-3.415-3.415-3.415
			C67.152,317.085,65.623,318.614,65.623,320.5z"/>
		<path fill="#FF427B" d="M168.325,68.135c1.847,0,3.345-1.498,3.345-3.345c0-1.847-1.498-3.345-3.345-3.345
			c-1.847,0-3.345,1.498-3.345,3.345C164.981,66.637,166.478,68.135,168.325,68.135z"/>
		<path fill="#FF427B" d="M48.046,157.877c0-1.747-1.416-3.164-3.164-3.164s-3.164,1.417-3.164,3.164s1.417,3.164,3.164,3.164
			S48.046,159.624,48.046,157.877z"/>
		<circle fill="#FF427B" cx="124.978" cy="216.927" r="2.798"/>
		<circle fill="#FF427B" cx="162.209" cy="78.525" r="3.34"/>
		<circle fill="#FF427B" cx="166.993" cy="278.039" r="2.964"/>
		<circle fill="#FF427B" cx="137.087" cy="225.051" r="3.024"/>
		<path fill="#FF427B" d="M148.386,88.712c0,1.508,1.223,2.73,2.731,2.73c1.508,0,2.731-1.223,2.731-2.73s-1.223-2.73-2.731-2.73
			C149.609,85.982,148.386,87.204,148.386,88.712z"/>
		<path fill="#FF427B" d="M255.273,308.986c-1.416,0-2.564,1.148-2.564,2.564c0,1.416,1.148,2.564,2.564,2.564
			c1.416,0,2.564-1.148,2.564-2.564C257.837,310.134,256.689,308.986,255.273,308.986z"/>
		<circle fill="#FF427B" cx="211.065" cy="377.704" r="2.346"/>
		<path fill="#FF427B" d="M36.558,143.631c-1.269,0-2.298,1.028-2.298,2.297c0,1.269,1.029,2.297,2.298,2.297
			s2.298-1.029,2.298-2.297C38.856,144.659,37.827,143.631,36.558,143.631z"/>
		<path fill="#FF427B" d="M152.302,232.747c0-1.189-0.964-2.152-2.153-2.152c-1.189,0-2.153,0.964-2.153,2.152
			c0,1.189,0.964,2.153,2.153,2.153C151.338,234.9,152.302,233.936,152.302,232.747z"/>
		<path fill="#FF427B" d="M170.412,323.039c0-0.95-0.77-1.72-1.721-1.72c-0.95,0-1.721,0.77-1.721,1.72c0,0.95,0.77,1.72,1.721,1.72
			C169.641,324.76,170.412,323.99,170.412,323.039z"/>
		<path fill="#FF427B" d="M80.788,324.7c0,1.016,0.824,1.84,1.84,1.84s1.84-0.824,1.84-1.84c0-1.016-0.824-1.84-1.84-1.84
			S80.788,323.684,80.788,324.7z"/>
		<circle fill="#FF427B" cx="136.367" cy="93.88" r="1.794"/>
		<circle fill="#FF427B" cx="328.535" cy="343.962" r="6.387"/>
		<path fill="#FF427B" d="M311.866,333.722c-3.428,0-6.208,2.779-6.208,6.208c0,3.428,2.779,6.208,6.208,6.208
			c3.428,0,6.208-2.779,6.208-6.208C318.074,336.502,315.295,333.722,311.866,333.722z"/>
		<circle fill="#FF427B" cx="345.19" cy="349.072" r="6.097"/>
		<path fill="#FF427B" d="M412.564,301.781c-3.206,0-5.804,2.599-5.804,5.804s2.599,5.804,5.804,5.804s5.804-2.598,5.804-5.804
			S415.77,301.781,412.564,301.781z"/>
		<path fill="#FF427B" d="M449.616,55.538c0,3.213,2.604,5.817,5.817,5.817c3.212,0,5.817-2.604,5.817-5.817
			s-2.604-5.817-5.817-5.817C452.22,49.721,449.616,52.325,449.616,55.538z"/>
		<path fill="#FF427B" d="M453.776,250c3.169,0,5.738-2.569,5.738-5.737s-2.569-5.737-5.738-5.737c-3.169,0-5.738,2.569-5.738,5.737
			S450.608,250,453.776,250z"/>
		<path fill="#FF427B" d="M455.982,85.095c0,3.122,2.531,5.653,5.653,5.653c3.122,0,5.653-2.531,5.653-5.653
			c0-3.122-2.531-5.653-5.653-5.653C458.513,79.442,455.982,81.973,455.982,85.095z"/>
		<circle fill="#FF427B" cx="448.946" cy="41.881" r="5.696"/>
		<path fill="#FF427B" d="M443.347,249.639c-3.101,0-5.615,2.514-5.615,5.615c0,3.101,2.514,5.615,5.615,5.615
			s5.615-2.514,5.615-5.615C448.962,252.152,446.448,249.639,443.347,249.639z"/>
		<path fill="#FF427B" d="M453.953,70.092c0,3.121,2.53,5.65,5.65,5.65c3.121,0,5.65-2.53,5.65-5.65s-2.53-5.65-5.65-5.65
			C456.483,64.442,453.953,66.972,453.953,70.092z"/>
		<path fill="#FF427B" d="M467.505,100.272c0-3.133-2.54-5.673-5.673-5.673c-3.133,0-5.673,2.54-5.673,5.673
			c0,3.133,2.54,5.673,5.673,5.673C464.965,105.945,467.505,103.406,467.505,100.272z"/>
		<path fill="#FF427B" d="M432.126,302.788c0-3.138-2.544-5.682-5.682-5.682s-5.682,2.544-5.682,5.682s2.544,5.682,5.682,5.682
			S432.126,305.927,432.126,302.788z"/>
		<path fill="#FF427B" d="M467.123,231.288c0-3.073-2.491-5.563-5.563-5.563s-5.563,2.491-5.563,5.563
			c0,3.073,2.491,5.563,5.563,5.563S467.123,234.36,467.123,231.288z"/>
		<circle fill="#FF427B" cx="460.319" cy="115.362" r="5.495"/>
		<circle fill="#FF427B" cx="439.614" cy="29.946" r="5.481"/>
		<path fill="#FF427B" d="M427.573,26.184c2.969,0,5.376-2.407,5.376-5.376c0-2.969-2.407-5.376-5.376-5.376
			c-2.969,0-5.376,2.407-5.376,5.376C422.197,23.777,424.604,26.184,427.573,26.184z"/>
		<path fill="#FF427B" d="M425.613,264.077c0,3.034,2.459,5.494,5.493,5.494s5.493-2.46,5.493-5.494s-2.459-5.493-5.493-5.493
			S425.613,261.043,425.613,264.077z"/>
		<circle fill="#FF427B" cx="296.1" cy="333.241" r="5.418"/>
		<path fill="#FF427B" d="M462.705,130.138c0-3-2.432-5.432-5.432-5.432c-3,0-5.432,2.432-5.432,5.432c0,3,2.432,5.432,5.432,5.432
			C460.273,135.571,462.705,133.138,462.705,130.138z"/>
		<path fill="#FF427B" d="M472.069,217.055c0-2.967-2.405-5.372-5.372-5.372c-2.967,0-5.372,2.405-5.372,5.372
			s2.405,5.372,5.372,5.372C469.664,222.427,472.069,220.022,472.069,217.055z"/>
		<path fill="#FF427B" d="M446.345,300.769c0-2.933-2.377-5.31-5.31-5.31c-2.933,0-5.31,2.377-5.31,5.31s2.377,5.31,5.31,5.31
			C443.968,306.079,446.345,303.702,446.345,300.769z"/>
		<circle fill="#FF427B" cx="338.383" cy="360.996" r="5.394"/>
		<path fill="#FF427B" d="M398.978,308.187c-2.941,0-5.324,2.324-5.324,5.192c0,2.867,2.384,5.192,5.324,5.192
			s5.324-2.324,5.324-5.192C404.303,310.512,401.919,308.187,398.978,308.187z"/>
		<path fill="#FF427B" d="M413.606,20.357c2.873,0,5.202-2.329,5.202-5.202s-2.329-5.202-5.202-5.202s-5.202,2.329-5.202,5.202
			S410.733,20.357,413.606,20.357z"/>
		<circle fill="#FF427B" cx="417.48" cy="270.738" r="5.159"/>
		<path fill="#FF427B" d="M457.906,144.669c0-2.84-2.302-5.142-5.143-5.142c-2.84,0-5.143,2.302-5.143,5.142
			c0,2.84,2.302,5.142,5.143,5.142C455.604,149.811,457.906,147.509,457.906,144.669z"/>
		<path fill="#FF427B" d="M469.733,197.168c-2.769,0-5.013,2.244-5.013,5.013c0,2.769,2.245,5.013,5.013,5.013
			s5.013-2.245,5.013-5.013C474.746,199.413,472.502,197.168,469.733,197.168z"/>
		<path fill="#FF427B" d="M398.568,18.645c2.74,0,4.961-2.221,4.961-4.961c0-2.74-2.221-4.961-4.961-4.961s-4.961,2.221-4.961,4.961
			C393.607,16.424,395.828,18.645,398.568,18.645z"/>
		<path fill="#FF427B" d="M451.728,158.633c0-2.625-2.128-4.753-4.753-4.753s-4.753,2.128-4.753,4.753
			c0,2.625,2.128,4.753,4.753,4.753S451.728,161.258,451.728,158.633z"/>
		<path fill="#FF427B" d="M383.717,21.573c2.583,0,4.677-2.094,4.677-4.677s-2.094-4.677-4.677-4.677
			c-2.583,0-4.678,2.094-4.678,4.677S381.134,21.573,383.717,21.573z"/>
		<path fill="#FF427B" d="M398.353,275.263c0,2.604,2.111,4.715,4.715,4.715c2.604,0,4.715-2.111,4.715-4.715
			c0-2.604-2.111-4.715-4.715-4.715C400.464,270.549,398.353,272.659,398.353,275.263z"/>
		<circle fill="#FF427B" cx="439.752" cy="171.975" r="4.57"/>
		<path fill="#FF427B" d="M454.176,302.052c-2.503,0-4.532,2.029-4.532,4.533c0,2.503,2.029,4.532,4.532,4.532
			s4.532-2.029,4.532-4.532C458.708,304.082,456.679,302.052,454.176,302.052z"/>
		<circle fill="#FF427B" cx="385.262" cy="318.658" r="4.467"/>
		<path fill="#FF427B" d="M472.072,182.814c-2.46,0-4.454,1.994-4.454,4.454c0,2.46,1.994,4.454,4.454,4.454
			s4.454-1.994,4.454-4.454C476.526,184.808,474.532,182.814,472.072,182.814z"/>
		<path fill="#FF427B" d="M370.62,28.73c2.454,0,4.443-1.989,4.443-4.443c0-2.454-1.989-4.443-4.443-4.443s-4.443,1.989-4.443,4.443
			C366.177,26.741,368.166,28.73,370.62,28.73z"/>
		<path fill="#FF427B" d="M431.441,180.36c-2.307,0-4.177,1.87-4.177,4.178s1.87,4.178,4.177,4.178s4.177-1.871,4.177-4.178
			S433.748,180.36,431.441,180.36z"/>
		<path fill="#FF427B" d="M384.016,277.852c0,2.255,1.828,4.083,4.082,4.083c2.255,0,4.082-1.828,4.082-4.083
			c0-2.255-1.828-4.083-4.082-4.083C385.844,273.769,384.016,275.597,384.016,277.852z"/>
		<path fill="#FF427B" d="M281.705,319.906c-2.216,0-4.012,1.797-4.012,4.013c0,2.216,1.797,4.013,4.012,4.013
			c2.216,0,4.012-1.797,4.012-4.013C285.718,321.703,283.921,319.906,281.705,319.906z"/>
		<path fill="#FF427B" d="M360.713,39.603c2.212,0,4.005-1.793,4.005-4.005s-1.793-4.005-4.005-4.005
			c-2.212,0-4.005,1.793-4.005,4.005S358.501,39.603,360.713,39.603z"/>
		<path fill="#FF427B" d="M319.65,368.587c0,2.188,1.774,3.962,3.962,3.962c2.188,0,3.962-1.774,3.962-3.962
			s-1.774-3.962-3.962-3.962C321.424,364.625,319.65,366.399,319.65,368.587z"/>
		<circle fill="#FF427B" cx="421.963" cy="196.387" r="3.727"/>
		<circle fill="#FF427B" cx="355.659" cy="49.506" r="4.018"/>
		<path fill="#FF427B" d="M474.706,168.626c-2.03,0-3.675,1.645-3.675,3.675s1.645,3.675,3.675,3.675
			c2.03,0,3.675-1.646,3.675-3.675S476.736,168.626,474.706,168.626z"/>
		<circle fill="#FF427B" cx="411.319" cy="206.946" r="3.526"/>
		<path fill="#FF427B" d="M369.146,278.75c0,2.005,1.626,3.631,3.632,3.631c2.005,0,3.631-1.626,3.631-3.631
			s-1.626-3.631-3.631-3.631C370.772,275.119,369.146,276.745,369.146,278.75z"/>
		<path fill="#FF427B" d="M370.572,318.472c-1.895,0-3.432,1.537-3.432,3.432s1.537,3.432,3.432,3.432s3.432-1.537,3.432-3.432
			S372.467,318.472,370.572,318.472z"/>
		<path fill="#FF427B" d="M451.966,320.5c0,1.886,1.529,3.415,3.415,3.415c1.886,0,3.415-1.529,3.415-3.415
			s-1.529-3.415-3.415-3.415C453.495,317.085,451.966,318.614,451.966,320.5z"/>
		<path fill="#FF427B" d="M356.093,61.445c-1.847,0-3.345,1.498-3.345,3.345c0,1.847,1.497,3.345,3.345,3.345
			c1.847,0,3.345-1.498,3.345-3.345C359.438,62.943,357.941,61.445,356.093,61.445z"/>
		<circle fill="#FF427B" cx="479.536" cy="157.877" r="3.164"/>
		<circle fill="#FF427B" cx="399.44" cy="216.927" r="2.798"/>
		<circle fill="#FF427B" cx="362.209" cy="78.525" r="3.34"/>
		<circle fill="#FF427B" cx="357.426" cy="278.039" r="2.964"/>
		<path fill="#FF427B" d="M384.307,225.051c0,1.67,1.354,3.025,3.024,3.025s3.024-1.354,3.024-3.025s-1.354-3.025-3.024-3.025
			S384.307,223.38,384.307,225.051z"/>
		<path fill="#FF427B" d="M376.032,88.712c0-1.508-1.223-2.73-2.731-2.73s-2.731,1.222-2.731,2.73s1.223,2.73,2.731,2.73
			S376.032,90.22,376.032,88.712z"/>
		<path fill="#FF427B" d="M269.146,308.986c-1.416,0-2.564,1.148-2.564,2.564c0,1.416,1.148,2.564,2.564,2.564
			c1.416,0,2.564-1.148,2.564-2.564C271.71,310.134,270.562,308.986,269.146,308.986z"/>
		<path fill="#FF427B" d="M313.353,375.358c-1.296,0-2.346,1.05-2.346,2.346s1.05,2.346,2.346,2.346c1.296,0,2.346-1.05,2.346-2.346
			S314.649,375.358,313.353,375.358z"/>
		<path fill="#FF427B" d="M487.861,143.631c-1.269,0-2.298,1.028-2.298,2.297c0,1.269,1.029,2.297,2.298,2.297
			s2.298-1.029,2.298-2.297C490.158,144.659,489.13,143.631,487.861,143.631z"/>
		<path fill="#FF427B" d="M372.117,232.747c0,1.189,0.964,2.153,2.153,2.153s2.153-0.964,2.153-2.153
			c0-1.189-0.964-2.152-2.153-2.152S372.117,231.558,372.117,232.747z"/>
		<path fill="#FF427B" d="M354.007,323.039c0,0.95,0.77,1.72,1.721,1.72c0.95,0,1.721-0.77,1.721-1.72c0-0.95-0.77-1.72-1.721-1.72
			C354.777,321.319,354.007,322.089,354.007,323.039z"/>
		<path fill="#FF427B" d="M439.95,324.7c0,1.016,0.824,1.84,1.84,1.84c1.016,0,1.84-0.824,1.84-1.84c0-1.016-0.824-1.84-1.84-1.84
			C440.774,322.86,439.95,323.684,439.95,324.7z"/>
		<circle fill="#FF427B" cx="388.052" cy="93.88" r="1.794"/>
		<path fill="#FF427B" d="M262.208,299.87c-0.78,0-1.412,0.632-1.412,1.412s0.632,1.412,1.412,1.412s1.412-0.632,1.412-1.412
			S262.988,299.87,262.208,299.87z"/>
	</g>
</g>
</svg>
